<svg xmlns="http://www.w3.org/2000/svg" width="92" height="32" viewBox="0 0 92 32">
    <defs>
        <radialGradient id="a" cx="97.173%" cy="-2.139%" r="111.507%" fx="97.173%" fy="-2.139%" gradientTransform="matrix(1 0 0 .99982 0 0)">
            <stop offset="0%" stop-color="#00FFFE"/>
            <stop offset="22.81%" stop-color="#00FFFE"/>
            <stop offset="30.467%" stop-color="#11F3FE"/>
            <stop offset="45.691%" stop-color="#3ED3FE"/>
            <stop offset="67.056%" stop-color="#87A0FF"/>
            <stop offset="93.521%" stop-color="#E95AFF"/>
            <stop offset="95.314%" stop-color="#F055FF"/>
            <stop offset="100%" stop-color="#F055FF"/>
        </radialGradient>
        <radialGradient id="b" cx="85.153%" cy="8.46%" r="133.012%" fx="85.153%" fy="8.46%" gradientTransform="matrix(.49243 0 0 1 .432 0)">
            <stop offset="0%" stop-color="#053BF2"/>
            <stop offset="8.886%" stop-color="#0F3CF3" stop-opacity=".958"/>
            <stop offset="24.144%" stop-color="#2A3FF4" stop-opacity=".844"/>
            <stop offset="43.934%" stop-color="#5544F6" stop-opacity=".658"/>
            <stop offset="67.492%" stop-color="#924BFA" stop-opacity=".402"/>
            <stop offset="93.951%" stop-color="#DE53FE" stop-opacity=".078"/>
            <stop offset="100%" stop-color="#F055FF" stop-opacity="0"/>
        </radialGradient>
    </defs>
    <g fill="none" fill-rule="nonzero">
        <path fill="#000" d="M61.827 26.835c-.59 1.101-1.395 1.02-2.264 1.02v3.683c.595.1 1.198.147 1.8.141 1.722 0 3.175-.743 4.062-2.673.887-1.931 1.024-5.528 1.46-9.455h4.233v11.757h4.085V16.033H63.187c-.479 5.081-.725 9.614-1.36 10.802zM51.377 15.662c-3.844 0-6.668 2.462-7.331 6.25h-2.077v-5.88h-4.085v15.276h4.085V25.43h2.077c.663 3.787 3.487 6.25 7.331 6.25 4.412 0 7.481-3.242 7.481-8.01 0-4.767-3.069-8.008-7.48-8.008zm0 12.342c-2.093 0-3.517-1.675-3.517-4.334 0-2.658 1.424-4.333 3.517-4.333 2.094 0 3.518 1.675 3.518 4.333 0 2.659-1.424 4.334-3.518 4.334zM84.657 15.662a18.412 18.412 0 0 0-5.756.846v3.64a16.103 16.103 0 0 1 5.205-.834c3.355 0 3.714 1.695 3.714 2.494v.282a23.686 23.686 0 0 0-3.407-.274c-5.625 0-6.789 2.93-6.789 4.931s1.246 4.927 5.68 4.927a6.226 6.226 0 0 0 4.68-1.963h.17v1.597h3.72v-8.572c0-2.677-.592-7.074-7.217-7.074zm3.163 10.97a4.24 4.24 0 0 1-3.532 1.638c-1.524 0-2.251-.679-2.251-1.656 0-.972.783-1.87 3.507-1.87 1.287 0 2.276.014 2.276.014v1.875z"/>
        <path fill="url(#a)" d="M16.626 23.008A22.473 22.473 0 0 1 30.996 8.64a.883.883 0 0 0 0-1.672A22.473 22.473 0 0 1 16.626-7.4a.882.882 0 0 0-1.671 0A22.473 22.473 0 0 1 .6 6.968a.883.883 0 0 0 0 1.672 22.473 22.473 0 0 1 14.36 14.368.882.882 0 0 0 1.666 0z" transform="translate(0 8)"/>
        <path fill="url(#b)" d="M.6 8.64a22.473 22.473 0 0 1 14.36 14.368.882.882 0 0 0 1.671 0A22.473 22.473 0 0 1 30.996 8.64c-3.225 1.052-8.676 1.892-15.197 1.892-6.52 0-11.975-.84-15.2-1.892z" opacity=".8" transform="translate(0 8)"/>
    </g>
</svg>
