<svg xmlns="http://www.w3.org/2000/svg" width="17" height="16" viewBox="0 0 17 16">
  <path fill="#D8DADB" fill-rule="evenodd" d="M3.58803617,50.4166756 C2.8668347,50.4166756 2.27930883,51.0031234 2.27930883,51.7254029 L2.27930883,57.9046658 C2.27930883,58.6258673 2.8668347,59.2133932 3.58803617,59.2133932 L5.03906336,59.2133932 C5.39589099,59.2133932 5.68588083,59.502305 5.68588083,59.8602106 L5.68588083,62.4884456 C5.97263657,62.20708 6.68736987,61.427665 8.40251419,59.4376232 C8.52648754,59.2953234 8.70436234,59.2133932 8.89301743,59.2133932 L14.2907092,59.2133932 C14.3133478,59.2133932 14.3359864,59.2144712 14.358625,59.2166272 C15.0485637,59.1810523 15.5994365,58.6086188 15.5994365,57.910056 L15.5983585,51.7254029 C15.5983585,51.0031234 15.0119107,50.4166756 14.2907092,50.4166756 L3.58803617,50.4166756 Z M5.21586013,64.1777172 C5.09943299,64.1777172 4.98192782,64.1540006 4.86765673,64.1000991 C4.57012069,63.9631894 4.39224589,63.6602632 4.39224589,63.2915773 L4.39224589,60.5070281 L3.58803617,60.5070281 C2.15317942,60.5070281 0.985673896,59.3395226 0.985673896,57.9046658 L0.985673896,51.7254029 C0.985673896,50.2905462 2.15317942,49.1230407 3.58803617,49.1230407 L14.2907092,49.1230407 C15.7244879,49.1230407 16.8919934,50.2905462 16.8919934,51.7254029 L16.8930715,57.910056 C16.8930715,59.3449127 15.7255659,60.5124182 14.2907092,60.5124182 C14.2626804,60.5124182 14.2346517,60.5102622 14.207701,60.5070281 L9.18947544,60.5070281 C7.58321206,62.3666283 6.7218668,63.318528 6.40492624,63.5826452 C6.06426904,63.871557 5.63952557,64.1777172 5.21586013,64.1777172 Z" transform="translate(0 -49)"/>
</svg>
