<svg xmlns="http://www.w3.org/2000/svg" width="16" height="12" viewBox="0 0 16 12">
  <path fill="#468EE5" fill-rule="evenodd" d="M14.8344869,144.309796 C14.5494813,144.116174 14.2153368,144 13.8549849,144 L1.84543856,144 C1.50692617,144 1.19462118,144.105612 0.921627307,144.276939 L7.83820001,150.083275 L14.8344869,144.309796 Z M15.5486389,145.199288 L8.16797661,151.290777 C8.06969881,151.37292 7.95285744,151.412818 7.83492408,151.412818 C7.71589876,151.412818 7.59796541,151.371747 7.49968761,151.287257 L0.180175955,145.141788 C0.0677024799,145.398778 0,145.681584 0,145.983167 L0,153.963945 C0,155.056447 0.827717416,155.945938 1.84543856,155.945938 L13.8549849,155.945938 C14.8727061,155.945938 15.7004235,155.056447 15.7004235,153.963945 L15.7004235,145.983167 C15.7004235,145.70388 15.6458247,145.439849 15.5486389,145.199288 Z" transform="translate(0 -144)"/>
</svg>
