<svg xmlns="http://www.w3.org/2000/svg" width="16" height="13" viewBox="0 0 16 13">
  <path fill="#468EE5" fill-rule="evenodd" d="M14.9228255,36.6263112 L3.06558333,36.6263112 C2.71522387,36.6263112 2.43062419,36.3204749 2.43062419,35.9453926 L2.43062419,28.2740942 L8.59695071,33.406374 C8.71445588,33.5033184 8.85459967,33.5517906 8.99366542,33.5517906 C9.13380921,33.5517906 9.27395299,33.5033184 9.39038014,33.4075281 L15.5577847,28.2971762 L15.5577847,35.9453926 C15.5577847,36.3204749 15.273185,36.6263112 14.9228255,36.6263112 Z M14.5077843,27.4165984 L8.99474345,31.9833695 L3.50757527,27.4165984 L14.5077843,27.4165984 Z M14.9228255,26.0316791 L3.06558333,26.0316791 C2.00264663,26.0316791 1.13698925,26.9584209 1.13698925,28.0963629 L1.13698925,35.9453926 C1.13698925,37.0844887 2.00264663,38.0112305 3.06558333,38.0112305 L14.9228255,38.0112305 C15.9868403,38.0112305 16.8524977,37.0844887 16.8524977,35.9453926 L16.8524977,28.0963629 C16.8524977,26.9584209 15.9868403,26.0316791 14.9228255,26.0316791 Z" transform="translate(-1 -26)"/>
</svg>
