<svg xmlns="http://www.w3.org/2000/svg" width="16" height="16" viewBox="0 0 16 16">
  <path fill="#468EE5" fill-rule="evenodd" d="M10.7467523,128.577751 C10.7487938,128.578772 10.7508352,128.579793 10.7528767,128.580813 C10.7508352,128.579793 10.7487938,128.578772 10.7467523,128.577751 M12.7912602,133.982479 C12.7218511,133.982479 12.6504005,133.980437 12.5779292,133.976354 C11.6092632,133.921235 10.6222241,133.627267 9.47186945,133.049538 C7.40694707,132.011463 5.59720541,130.547746 4.09470133,128.700238 C2.89126906,127.22121 2.0318204,125.739121 1.46736065,124.168228 C1.21626282,123.474137 0.935564031,122.542217 1.01313897,121.494955 C1.06519584,120.809029 1.32650089,120.230279 1.79297125,119.774016 C2.02773751,119.543333 2.25433799,119.306525 2.48195919,119.068697 L2.95761605,118.575688 C3.32405556,118.201082 3.7629664,118.002041 4.22433314,118 L4.23045748,118 C4.69080349,118 5.13073505,118.197 5.50023674,118.570584 C5.75847962,118.831889 5.94118902,119.123816 6.10246323,119.382059 C6.17493456,119.499442 6.24740588,119.616825 6.32600154,119.726042 L6.46175769,119.916918 C6.66692298,120.205782 6.8996478,120.535476 7.12114466,120.766159 C7.8856661,121.561302 7.88668682,122.590191 7.12318611,123.384313 L6.90066852,123.616017 C6.70979335,123.8171 6.57505793,123.957959 6.36478901,124.17027 C6.56995431,124.62245 6.85371527,125.071568 7.24567286,125.570702 C8.12859814,126.690435 9.03602078,127.546821 10.0210184,128.187835 C10.147588,128.268472 10.2864063,128.337881 10.4252246,128.408311 C10.4538049,128.423622 10.4823851,128.437912 10.5109653,128.452202 C10.6620323,128.310322 10.8008506,128.200084 10.9427311,128.088825 C11.0876738,127.975525 11.2356786,127.860183 11.4040979,127.688702 C11.7715581,127.310013 12.2114897,127.109952 12.6738771,127.108931 L12.6769393,127.108931 C13.1393267,127.108931 13.580279,127.308993 13.9518222,127.687681 L13.9528429,127.688702 C14.2315002,127.975525 14.5387378,128.208249 14.8643484,128.453223 C15.2175185,128.721673 15.583958,128.997268 15.9330453,129.359625 C16.678173,130.135374 16.6761315,131.182636 15.9279416,131.967572 C15.8023927,132.098224 15.6748024,132.225815 15.5482327,132.353405 C15.3195908,132.583068 15.0909489,132.81171 14.8796593,133.055662 C14.3488834,133.671158 13.6476467,133.982479 12.7912602,133.982479" transform="translate(-1 -118)"/>
</svg>
