<svg xmlns="http://www.w3.org/2000/svg" width="17" height="17" viewBox="0 0 17 17">
  <path fill="#468EE5" fill-rule="evenodd" d="M11.5879742,10.7346495 C11.5900156,10.7356703 11.592057,10.736691 11.5940985,10.7377117 C11.592057,10.736691 11.5900156,10.7356703 11.5879742,10.7346495 M5.07167931,1.38176581 L5.06963786,1.38176581 C4.91040509,1.38278653 4.76546244,1.49608677 4.67257666,1.591014 L4.20814775,2.0727952 C3.97236077,2.31878941 3.73657378,2.56478363 3.49160029,2.8046535 C3.2374403,3.05473061 3.10474632,3.35278169 3.07514536,3.74269783 C3.02819211,4.37758746 3.14761668,5.04616094 3.46097861,5.90867177 C3.97746438,7.34891175 4.77056606,8.71463896 5.88621616,10.0834283 C7.27950289,11.797222 8.95348841,13.1517213 10.8632609,14.1122215 C11.8717351,14.6185001 12.6821891,14.8644943 13.4895809,14.9104268 C14.06731,14.94309 14.4684541,14.7899815 14.7940647,14.4123141 C15.0247481,14.1459054 15.2727837,13.8958283 15.5208194,13.6467719 L15.883176,13.2772702 C16.1832685,12.9628876 16.1863307,12.6730023 15.8903211,12.3657647 C15.6096223,12.0738379 15.2972811,11.838051 14.9675876,11.5879739 C14.6195211,11.3256481 14.2602266,11.0541358 13.9172638,10.7009657 C13.8223365,10.6050177 13.6763732,10.4906968 13.5181611,10.4906968 L13.5171404,10.4906968 C13.3589283,10.4906968 13.2150064,10.6050177 13.1221206,10.699945 C12.9098103,10.9183796 12.7240387,11.0653637 12.5392879,11.2103064 C12.3861794,11.329731 12.2340917,11.4481348 12.0615896,11.6308442 C11.7584349,11.9533926 11.3542286,12.0176982 10.9857477,11.8002842 C10.9010277,11.753331 10.8061004,11.705357 10.7111732,11.657383 C10.5366296,11.5685801 10.362086,11.4787565 10.1977496,11.3726013 C9.09638961,10.6560539 8.0919983,9.71290593 7.12435301,8.48497631 C6.60378434,7.82354789 6.24346917,7.22540428 5.99032989,6.60072188 C5.80353761,6.14547948 5.98828845,5.81884816 6.17610146,5.62491081 C6.48435977,5.31767322 6.62828169,5.16558552 6.85692362,4.92775709 L7.08046193,4.69299082 C7.39076168,4.37044239 7.38974096,4.09484722 7.07842048,3.77025734 C6.7936388,3.47322699 6.53335446,3.10576675 6.30369182,2.78117688 L6.17303929,2.59744676 C6.07913278,2.46679423 5.99237134,2.32899664 5.90458917,2.18813688 C5.76475014,1.96459857 5.63205616,1.75228822 5.47078195,1.58897256 C5.37789617,1.49506605 5.2319328,1.38176581 5.07167931,1.38176581 M13.6324821,16.1393772 C13.5630729,16.1393772 13.4916223,16.1373357 13.419151,16.1332528 C12.450485,16.0781338 11.463446,15.7841656 10.3130913,15.2064365 C8.2481689,14.1683613 6.43842724,12.7046447 4.93592316,10.8571363 C3.73249089,9.37810883 2.87304223,7.89601921 2.30858248,6.3251267 C2.05748465,5.63103515 1.77678586,4.69911516 1.8543608,3.65185349 C1.90641766,2.96592772 2.16772272,2.38717785 2.63419308,1.93091472 C2.86895934,1.70023135 3.09555982,1.46342364 3.32318102,1.22559521 L3.79883788,0.732586062 C4.16527739,0.357980767 4.60418823,0.158939806 5.06555497,0.15689836 L5.07167931,0.15689836 C5.53202532,0.15689836 5.97195688,0.353897875 6.34145856,0.727482448 C6.59970145,0.988787504 6.78241085,1.28071425 6.94368506,1.53895713 C7.01615639,1.65634027 7.08862771,1.7737234 7.16722337,1.88294074 L7.30297951,2.07381592 C7.50814481,2.3626805 7.74086963,2.69237399 7.96236649,2.92305736 C8.72688793,3.71820048 8.72790865,4.74708914 7.96440794,5.54121153 L7.74189035,5.77291563 C7.55101517,5.97399803 7.41627975,6.11485779 7.20601084,6.32716815 C7.41117614,6.77934838 7.6949371,7.22846645 8.08689468,7.72759994 C8.96981997,8.84733293 9.87724261,9.70371943 10.8622402,10.3447334 C10.9888098,10.4253705 11.1276281,10.4947797 11.2664464,10.5652095 C11.2950267,10.5805204 11.3236069,10.5948105 11.3521872,10.6091006 C11.5032542,10.4672201 11.6420725,10.3569821 11.7839529,10.2457233 C11.9288956,10.132423 12.0769004,10.0170813 12.2453197,9.84559991 C12.6127799,9.46691172 13.0527115,9.26685003 13.5150989,9.26582931 L13.5181611,9.26582931 C13.9805486,9.26582931 14.4215009,9.465891 14.793044,9.84457918 L14.7940647,9.84559991 C15.0727221,10.132423 15.3799596,10.3651478 15.7055702,10.6101213 C16.0587404,10.8785715 16.4251799,11.1541666 16.7742671,11.5165233 C17.5193948,12.2922726 17.5173533,13.3395343 16.7691635,14.1244702 C16.6436146,14.2551227 16.5160242,14.3827131 16.3894546,14.5103035 C16.1608126,14.7399661 15.9321707,14.968608 15.7208811,15.2125608 C15.1901052,15.8280567 14.4888686,16.1393772 13.6324821,16.1393772" transform="translate(-1)"/>
</svg>
