<?xml version="1.0" encoding="UTF-8"?>
<!DOCTYPE svg PUBLIC "-//W3C//DTD SVG 1.1//EN" "http://www.w3.org/Graphics/SVG/1.1/DTD/svg11.dtd">
<!-- Creator: CorelDRAW 2019 (64-Bit) -->
<svg width="300" height="100" xmlns="http://www.w3.org/2000/svg" version="1.1" style="shape-rendering:geometricPrecision; text-rendering:geometricPrecision; image-rendering:optimizeQuality; fill-rule:evenodd; clip-rule:evenodd"
viewBox="0 2300 22000 4100"
 xmlns:xlink="http://www.w3.org/1999/xlink"
 xmlns:xodm="http://www.corel.com/coreldraw/odm/2003">
 <defs>
  <style type="text/css">
   <![CDATA[
    .fil2 {fill:#E31E24}
    .fil1 {fill:#0C54A0}
    .fil0 {fill:#0C54A0;fill-rule:nonzero}
   ]]>
  </style>
 </defs>
 <g id="Слой_x0020_1">
  <metadata id="CorelCorpID_0Corel-Layer"/>
  <path class="fil0" d="M7800.43 4170.78l0 -944.28 -267.66 0 0 944.28 -518.7 0 0 -944.28 -267.66 0 0 1163.73 972.56 0 0 246.05 247.71 0 0 -465.5 -166.25 0zm611.79 3.33l0 -269.32 540.32 0 0 -209.48 -540.32 0 0 -252.69 611.81 0 0 -216.12 -879.47 0 0 1163.73 901.07 0 0 -216.12 -633.41 0zm1649.2 -947.61l0 458.84 -528.68 0 0 -458.84 -269.32 0 0 1163.73 269.32 0 0 -477.13 528.68 0 0 477.13 269.32 0 0 -1163.73 -269.32 0zm1449.69 0l-1009.14 0 0 219.44 370.74 0 0 944.29 266 0 0 -944.29 372.4 0 0 -219.44zm673.3 0l-503.74 0 0 1163.73 269.33 0 0 -320.86 234.41 0c310.89,0 505.39,-161.25 505.39,-420.6 0,-261.02 -194.5,-422.27 -505.39,-422.27zm-14.96 623.43l-219.45 0 0 -403.99 219.45 0c164.58,0 247.71,74.82 247.71,202.83 0,126.34 -83.13,201.16 -247.71,201.16zm1531.14 540.3l282.64 0 -520.37 -1163.73 -266 0 -518.68 1163.73 275.97 0 103.06 -249.37 540.32 0 103.06 249.37zm-556.92 -453.85l184.53 -445.55 184.53 445.55 -369.06 0zm1147.39 -709.88l-16.62 472.14c-11.64,297.59 -46.56,470.48 -182.88,470.48 -16.62,0 -31.59,-1.65 -48.21,-6.65l-16.62 227.76c49.88,11.64 93.09,18.29 132.99,18.29 272.94,0 337.77,-262.67 352.74,-719.85l8.31 -242.73 398.43 0 0 944.29 266.01 0 0 -1163.73 -894.15 0zm1748.66 382.37l-295.92 0 0 -382.37 -267.67 0 0 1163.73 525.35 0c299.25,0 478.8,-137.98 478.8,-405.64 0,-251.04 -159.6,-375.72 -440.56,-375.72zm-53.19 581.86l-242.73 0 0 -382.36 242.73 0c139.65,0 222.76,53.19 222.76,181.2 0,131.34 -84.78,201.16 -222.76,201.16zm1486.26 -964.23l0 458.84 -528.68 0 0 -458.84 -269.32 0 0 1163.73 269.32 0 0 -477.13 528.68 0 0 477.13 269.33 0 0 -1163.73 -269.33 0zm1115.52 1183.68c365.75,0 636.74,-254.35 636.74,-601.81 0,-347.46 -270.99,-601.82 -636.74,-601.82 -367.41,0 -636.72,256.02 -636.72,601.82 0,345.79 269.31,601.81 636.72,601.81zm0 -229.42c-207.81,0 -364.08,-151.29 -364.08,-372.39 0,-221.12 156.27,-372.41 364.08,-372.41 207.81,0 364.08,151.29 364.08,372.41 0,221.1 -156.27,372.39 -364.08,372.39zm1112.21 -6.65l0 -269.32 540.32 0 0 -209.48 -540.32 0 0 -252.69 611.81 0 0 -216.12 -879.47 0 0 1163.73 901.07 0 0 -216.12 -633.41 0z"/>
  <path class="fil0" d="M7227.96 5577.55l141.18 0 -259.95 -581.35 -132.89 0 -259.11 581.35 137.86 0 51.49 -124.57 269.92 0 51.5 124.57zm-278.24 -226.72l92.2 -222.59 92.19 222.59 -184.39 0zm907.2 -354.63l-410.4 0 0 581.35 133.85 0 -0.83 -471.73 276.55 0 0.83 -109.62zm215.67 473.38l0 -134.54 269.91 0 0 -104.64 -269.91 0 0 -126.24 305.62 0 0 -107.96 -439.34 0 0 581.35 450.15 0 0 -107.97 -316.43 0zm823.87 -473.38l0 229.22 -264.1 0 0 -229.22 -134.55 0 0 581.35 134.55 0 0 -238.36 264.1 0 0 238.36 134.54 0 0 -581.35 -134.54 0zm724.22 0l-504.13 0 0 109.62 185.2 0 0 471.73 132.89 0 0 -471.73 186.04 0 0 -109.62zm351.3 591.31c101.33,0 185.2,-36.54 240.01,-103.81l-86.37 -79.72c-39.04,45.68 -88.04,68.93 -146.16,68.93 -108.81,0 -186.04,-76.41 -186.04,-186.03 0,-109.63 77.23,-186.04 186.04,-186.04 58.12,0 107.12,23.25 146.16,68.1l86.37 -79.72c-54.81,-66.44 -138.68,-103 -239.18,-103 -181.05,0 -315.59,125.41 -315.59,300.66 0,175.24 134.54,300.63 314.76,300.63zm766.57 -591.31l-504.12 0 0 109.62 185.2 0 0 471.73 132.89 0 0 -471.73 186.03 0 0 -109.62zm487.51 278.22c51.49,-24.92 82.22,-68.94 82.22,-127.89 0,-96.35 -79.72,-150.33 -214.26,-150.33l-270.76 0 0 581.35 286.53 0c147,0 225.91,-62.28 225.91,-163.61 0,-70.59 -39.04,-118.75 -109.64,-139.52zm-269.08 -178.56l125.41 0c58.13,0 88.86,24.92 88.86,70.59 0,46.51 -30.73,70.6 -88.86,70.6l-125.41 0 0 -141.19zm147.83 382.03l-147.83 0 0 -146.99 147.83 0c62.29,0 94.68,23.25 94.68,72.24 0,50.67 -32.39,74.75 -94.68,74.75zm614.58 109.62c182.71,0 318.08,-127.06 318.08,-300.63 0,-173.58 -135.37,-300.66 -318.08,-300.66 -183.55,0 -318.09,127.91 -318.09,300.66 0,172.74 134.54,300.63 318.09,300.63zm0 -114.6c-103.82,0 -181.89,-75.58 -181.89,-186.03 0,-110.46 78.07,-186.04 181.89,-186.04 103.81,0 181.87,75.58 181.87,186.04 0,110.45 -78.06,186.03 -181.87,186.03zm1055.57 -476.71l0 229.22 -264.1 0 0 -229.22 -134.55 0 0 581.35 134.55 0 0 -238.36 264.1 0 0 238.36 134.54 0 0 -581.35 -134.54 0zm413.61 473.38l0 -134.54 269.91 0 0 -104.64 -269.91 0 0 -126.24 305.62 0 0 -107.96 -439.34 0 0 581.35 450.14 0 0 -107.97 -316.42 0zm943.46 -1.65l0 -471.73 -446.68 0 -6.65 181.87c-6.09,162.79 -25.19,287.36 -100.9,289.86l-23.25 0 -0.84 230.05 124.71 0 0 -120.43 410.43 0 0 120.43 124.57 0 0 -230.05 -81.39 0zm-334.42 -277.4l2.49 -84.71 199.04 0 0 362.11 -259.8 0c40,-47.35 53.28,-153.65 58.27,-277.4zm909.13 83.89c51.5,-24.92 82.23,-68.94 82.23,-127.89 0,-96.35 -79.73,-150.33 -214.27,-150.33l-270.76 0 0 581.35 286.53 0c147,0 225.91,-62.28 225.91,-163.61 0,-70.59 -39.04,-118.75 -109.64,-139.52zm-269.07 -178.56l125.41 0c58.12,0 88.85,24.92 88.85,70.59 0,46.51 -30.73,70.6 -88.85,70.6l-125.41 0 0 -141.19zm147.82 382.03l-147.82 0 0 -146.99 147.82 0c62.29,0 94.69,23.25 94.69,72.24 0,50.67 -32.4,74.75 -94.69,74.75zm337.18 99.66l127.08 0 277.39 -377.88 0 377.88 132.89 0 0 -581.35 -126.25 0 -277.39 378.71 0 -378.71 -133.72 0 0 581.35zm1339.62 0l155.31 0 -173.58 -303.96 162.79 -277.39 -142.02 0 -131.22 235.03 -86.38 0 0 -235.03 -132.05 0 0 235.03 -88.86 0 -130.39 -235.03 -142.01 0 163.6 277.39 -174.41 303.96 155.3 0 130.4 -234.2 86.37 0 0 234.2 132.05 0 0 -234.2 84.71 0 130.39 234.2zm220.08 0l127.08 0 277.38 -377.88 0 377.88 132.89 0 0 -581.35 -126.24 0 -277.39 378.71 0 -378.71 -133.72 0 0 581.35zm1337.55 0l-0.84 -581.35 -111.29 0 -214.41 361.28 -217.87 -361.28 -111.29 0 0 581.35 126.24 0 0 -341.34 171.23 279.89 59.94 0 171.22 -286.53 0.82 347.98 126.25 0zm421.49 9.96c182.7,0 318.07,-127.06 318.07,-300.63 0,-173.58 -135.37,-300.66 -318.07,-300.66 -183.55,0 -318.09,127.91 -318.09,300.66 0,172.74 134.54,300.63 318.09,300.63zm0 -114.6c-103.83,0 -181.89,-75.58 -181.89,-186.03 0,-110.46 78.06,-186.04 181.89,-186.04 103.81,0 181.87,75.58 181.87,186.04 0,110.45 -78.06,186.03 -181.87,186.03zm696.79 114.6c101.33,0 185.2,-36.54 240.01,-103.81l-86.37 -79.72c-39.04,45.68 -88.04,68.93 -146.16,68.93 -108.81,0 -186.04,-76.41 -186.04,-186.03 0,-109.63 77.23,-186.04 186.04,-186.04 58.12,0 107.12,23.25 146.16,68.1l86.37 -79.72c-54.81,-66.44 -138.68,-103 -239.18,-103 -181.05,0 -315.59,125.41 -315.59,300.66 0,175.24 134.54,300.63 314.76,300.63zm766.57 -591.31l-504.12 0 0 109.62 185.2 0 0 471.73 132.89 0 0 -471.73 186.03 0 0 -109.62zm84.71 581.35l127.07 0 277.39 -377.88 0 377.88 132.89 0 0 -581.35 -126.24 0 -277.39 378.71 0 -378.71 -133.72 0 0 581.35z"/>
  <path class="fil1" d="M3227.55 2029.07c1294.35,0 2343.63,1049.28 2343.63,2343.64 0,461.28 -133.35,891.37 -363.48,1254l-1980.16 -1980.16 -1980.15 1980.16c-230.13,-362.63 -363.48,-792.72 -363.48,-1254 0,-1294.36 1049.28,-2343.64 2343.64,-2343.64z"/>
  <path class="fil2" d="M4887.08 6027.38c-424.28,425.57 -1011.12,688.96 -1659.53,688.96 -648.42,0 -1235.26,-263.39 -1659.54,-688.96l1659.53 -1659.54 1659.54 1659.54z"/>
 </g>
</svg>
