<svg width="18" height="18" viewBox="0 0 18 18" fill="none" xmlns="http://www.w3.org/2000/svg">
<path d="M17.6249 0H4.87255C4.77308 0 4.67768 0.0431007 4.60734 0.11982C4.537 0.19654 4.49748 0.300593 4.49748 0.409091V6.52909L2.21706 2.88818C2.16102 2.79849 2.07461 2.73675 1.97684 2.71655C1.87907 2.69635 1.77794 2.71933 1.69571 2.78045C1.61348 2.84157 1.55687 2.93582 1.53835 3.04246C1.51983 3.1491 1.5409 3.2594 1.59694 3.34909L4.41997 7.85455L2.16955 11.4955C1.81578 11.4484 1.45698 11.5088 1.13269 11.67C0.8084 11.8313 0.53122 12.087 0.331704 12.4091C0.135053 12.7263 0.0213208 13.0959 0.00271648 13.4783C-0.0158878 13.8606 0.0613383 14.2413 0.226105 14.5794C0.390871 14.9176 0.636955 15.2003 0.937938 15.3974C1.23892 15.5945 1.58344 15.6985 1.9345 15.6982C2.25225 15.699 2.56531 15.6147 2.84612 15.4525C3.12693 15.2903 3.36687 15.0553 3.5448 14.7682C3.68692 14.5383 3.78608 14.2802 3.83661 14.0085C3.88714 13.7368 3.88804 13.4569 3.83927 13.1848C3.79049 12.9128 3.693 12.6539 3.55237 12.4229C3.41174 12.192 3.23073 11.9936 3.01971 11.8391C2.9822 11.8118 2.94469 11.79 2.90718 11.7655L4.49748 9.19091V17.5909C4.49748 17.6994 4.537 17.8035 4.60734 17.8802C4.67768 17.9569 4.77308 18 4.87255 18H17.6249C17.7244 18 17.8198 17.9569 17.8901 17.8802C17.9605 17.8035 18 17.6994 18 17.5909V0.409091C18 0.300593 17.9605 0.19654 17.8901 0.11982C17.8198 0.0431007 17.7244 0 17.6249 0ZM3.09972 13.3418C3.12992 13.5082 3.12956 13.6794 3.09865 13.8456C3.06775 14.0118 3.00692 14.1696 2.91969 14.31C2.74348 14.5944 2.47097 14.791 2.16201 14.8564C1.85305 14.9219 1.5329 14.8509 1.27188 14.6591C1.04073 14.493 0.870485 14.2435 0.790897 13.9543C0.711309 13.6651 0.727448 13.3546 0.836492 13.0771C0.945536 12.7996 1.14055 12.5727 1.38743 12.4362C1.6343 12.2996 1.91734 12.262 2.18705 12.33C2.22351 12.3476 2.26236 12.3587 2.30207 12.3627C2.50345 12.4326 2.68383 12.5605 2.82421 12.7328C2.96458 12.9051 3.05976 13.1155 3.09972 13.3418ZM17.2499 17.1818H5.24762V9.18L6.86042 11.7545C6.82292 11.7791 6.78541 11.8009 6.7479 11.8282C6.53852 11.9848 6.35949 12.1849 6.22103 12.4171C6.08257 12.6492 5.9874 12.9088 5.94096 13.1811C5.89452 13.4533 5.89772 13.7329 5.95037 14.0038C6.00302 14.2748 6.10409 14.5317 6.24781 14.76C6.4641 15.1037 6.76876 15.37 7.12346 15.5254C7.47816 15.6807 7.86705 15.7182 8.24123 15.6331C8.61541 15.5479 8.95815 15.344 9.22633 15.047C9.49452 14.7499 9.67618 14.373 9.74846 13.9636C9.79637 13.6917 9.7943 13.4121 9.74236 13.141C9.69042 12.8699 9.58966 12.6128 9.44591 12.3845C9.24435 12.064 8.96576 11.8102 8.64069 11.651C8.31562 11.4917 7.95661 11.4332 7.60306 11.4818L5.33264 7.85455L8.12316 3.33C8.15074 3.28523 8.16997 3.23498 8.17974 3.1821C8.18952 3.12923 8.18965 3.07477 8.18013 3.02184C8.17061 2.96891 8.15163 2.91855 8.12426 2.87362C8.0969 2.82869 8.06168 2.79009 8.02064 2.76C7.97959 2.72992 7.93352 2.70894 7.88504 2.69828C7.83656 2.68762 7.78664 2.68748 7.73811 2.69786C7.68958 2.70824 7.6434 2.72895 7.60221 2.7588C7.56102 2.78864 7.52562 2.82705 7.49804 2.87182L5.24762 6.51545V0.818182H17.2499V17.1818ZM7.58306 12.3136C7.81535 12.2598 8.0571 12.2829 8.27722 12.3801C8.49735 12.4773 8.68578 12.6441 8.81829 12.8591C8.99061 13.1417 9.05366 13.487 8.99372 13.82C8.93378 14.153 8.7557 14.4467 8.49823 14.6373C8.23773 14.83 7.91783 14.9024 7.60854 14.8385C7.29924 14.7746 7.02575 14.5797 6.84792 14.2964C6.74126 14.129 6.67296 13.9363 6.64876 13.7342C6.62457 13.5321 6.64518 13.3267 6.70888 13.1351C6.77257 12.9435 6.87749 12.7714 7.01481 12.6332C7.15213 12.495 7.31784 12.3948 7.49804 12.3409C7.52728 12.3356 7.55583 12.3264 7.58306 12.3136Z" fill="black"/>
</svg>
