<svg width="26" height="26" viewBox="0 0 26 26" fill="none" xmlns="http://www.w3.org/2000/svg">
<g clip-path="url(#clip0_66_5)">
<path fill-rule="evenodd" clip-rule="evenodd" d="M5.58611 15.8167L7.58517 14.2232C8.06551 13.8407 8.34054 13.2676 8.33975 12.6595L8.3364 10.0573C11.3545 9.07057 14.6284 9.05927 17.6561 10.0453L17.6594 12.6616C17.6602 13.2697 17.9367 13.8421 18.4181 14.2233L20.4071 15.7976C21.2069 16.4259 22.3453 16.3608 23.0656 15.6386L24.2873 14.4138C25.0853 13.6137 25.0836 12.2843 24.2341 11.5359C17.8133 5.88025 8.16133 5.89978 1.76224 11.5649C0.914684 12.3155 0.9164 13.6449 1.71646 14.4429L2.94133 15.6646C3.64937 16.3849 4.78789 16.4471 5.58611 15.8167Z" fill="white"/>
</g>
<defs>
<clipPath id="clip0_66_5">
<rect width="18" height="18" fill="white" transform="translate(25.7279 12.9835) rotate(134.926)"/>
</clipPath>
</defs>
</svg>
