<svg width="26" height="26" viewBox="0 0 26 26" fill="none" xmlns="http://www.w3.org/2000/svg">
<path fill-rule="evenodd" clip-rule="evenodd" d="M19.2234 9.30953C19.6047 9.70903 19.59 10.342 19.1905 10.7234L11.8571 17.7234C11.4707 18.0922 10.8626 18.0922 10.4761 17.7234L6.80952 14.2234C6.41003 13.842 6.39531 13.209 6.77665 12.8095C7.15799 12.41 7.79099 12.3953 8.19048 12.7766L11.1666 15.6176L17.8095 9.27664C18.209 8.89531 18.842 8.91003 19.2234 9.30953Z" fill="black"/>
<path fill-rule="evenodd" clip-rule="evenodd" d="M13 2C6.92487 2 2 6.92487 2 13C2 19.0751 6.92487 24 13 24C19.0751 24 24 19.0751 24 13C24 6.92487 19.0751 2 13 2ZM0 13C0 5.8203 5.8203 0 13 0C20.1797 0 26 5.8203 26 13C26 20.1797 20.1797 26 13 26C5.8203 26 0 20.1797 0 13Z" fill="black"/>
</svg>
