<svg xmlns="http://www.w3.org/2000/svg" xmlns:xlink="http://www.w3.org/1999/xlink" viewBox="0 0 64 64"><defs><style>.cls-1{fill:url(#linear-gradient);}.cls-2{fill:url(#linear-gradient-2);}.cls-3{fill:url(#linear-gradient-3);}.cls-4{opacity:0.48;}</style><linearGradient id="linear-gradient" x1="3" y1="32.01" x2="61.01" y2="32.01" gradientUnits="userSpaceOnUse"><stop offset="0" stop-color="#ffe500"/><stop offset="1" stop-color="#fcb415"/></linearGradient><linearGradient id="linear-gradient-2" x1="28.42" y1="28.75" x2="35.58" y2="28.75" gradientUnits="userSpaceOnUse"><stop offset="0" stop-color="#141c2c"/><stop offset="0.84" stop-color="#090d14"/><stop offset="1" stop-color="#070a0f"/></linearGradient><linearGradient id="linear-gradient-3" x1="28.46" y1="47.9" x2="35.54" y2="47.9" xlink:href="#linear-gradient-2"/></defs><g id="Layer_14" data-name="Layer 14"><path class="cls-1" d="M60.57,52.77,34.75,8.05a3.19,3.19,0,0,0-5.5,0L3.43,52.77a3.18,3.18,0,0,0,2.75,4.77H57.82A3.2,3.2,0,0,0,60.57,52.77Z"/><rect class="cls-2" x="28.42" y="16.02" width="7.16" height="25.47" rx="3.13"/><path class="cls-3" d="M32,44.32a3.58,3.58,0,0,0,0,7.16A3.58,3.58,0,0,0,32,44.32Z"/><g class="cls-4"><path d="M60.57,52.77,34.75,8.05a3.19,3.19,0,0,0-5.5,0L3.43,52.77a3.18,3.18,0,0,0,2.75,4.77H57.82A3.2,3.2,0,0,0,60.57,52.77ZM58.84,55a1.15,1.15,0,0,1-1,.59H6.18a1.17,1.17,0,0,1-1-1.77L31,9.05a1.18,1.18,0,0,1,2,0L58.84,53.77A1.16,1.16,0,0,1,58.84,55Z"/><path d="M32.45,16h-.9a3.13,3.13,0,0,0-3.13,3.12V38.37a3.13,3.13,0,0,0,3.13,3.12h.9a3.13,3.13,0,0,0,3.13-3.12V19.14A3.13,3.13,0,0,0,32.45,16Zm1.13,22.35a1.12,1.12,0,0,1-1.13,1.12h-.9a1.13,1.13,0,0,1-1.13-1.12V19.14A1.13,1.13,0,0,1,31.55,18h.9a1.12,1.12,0,0,1,1.13,1.12Z"/><path d="M32,44.32a3.58,3.58,0,0,0,0,7.16A3.58,3.58,0,0,0,32,44.32Zm0,5.16a1.58,1.58,0,0,1,0-3.16A1.58,1.58,0,0,1,32,49.48Z"/></g></g></svg>