<svg xmlns="http://www.w3.org/2000/svg" width="16" height="16" viewBox="0 0 16 16">
  <path fill="#399fc2" fill-rule="evenodd" d="M4.23018624,182.054677 C4.11375909,182.054677 3.99625392,182.03096 3.88198283,181.977058 C3.5844468,181.840149 3.406572,181.537223 3.406572,181.168537 L3.406572,178.383987 L2.60236228,178.383987 C1.16750553,178.383987 0,177.216482 0,175.781625 L0,169.602362 C0,168.167506 1.16750553,167 2.60236228,167 L13.3050353,167 C14.738814,167 15.9063196,168.167506 15.9063196,169.602362 L15.9073976,175.787015 C15.9073976,177.221872 14.7398921,178.389378 13.3050353,178.389378 C13.2770065,178.389378 13.2489778,178.387222 13.2220271,178.383987 L8.20380155,178.383987 C6.59753817,180.243588 5.73619291,181.195487 5.41925235,181.459604 C5.07859515,181.748516 4.65385168,182.054677 4.23018624,182.054677 Z" transform="translate(0 -167)"/>
</svg>
