<svg width="19" height="20" viewBox="0 0 19 20" fill="none" xmlns="http://www.w3.org/2000/svg">
<path fill-rule="evenodd" clip-rule="evenodd" d="M17.71 14.7099L15.29 12.2899C15.1022 12.1006 14.8466 11.9942 14.58 11.9942C14.3134 11.9942 14.0578 12.1006 13.87 12.2899L10.29 15.8699C10.1028 16.0587 9.99846 16.3141 10 16.5799V18.9999C10 19.5522 10.4477 19.9999 11 19.9999H13.42C13.6858 20.0015 13.9413 19.8971 14.13 19.7099L17.71 16.1299C17.8993 15.9422 18.0058 15.6866 18.0058 15.4199C18.0058 15.1533 17.8993 14.8977 17.71 14.7099ZM13 17.9999H12V16.9999L14.58 14.4199L15.58 15.4199L13 17.9999ZM7 17.9999H3C2.44772 17.9999 2 17.5522 2 16.9999V2.99994C2 2.44765 2.44772 1.99994 3 1.99994H8V4.99994C8 6.65679 9.34315 7.99994 11 7.99994H14V8.99994C14 9.55222 14.4477 9.99994 15 9.99994C15.5523 9.99994 16 9.55222 16 8.99994V6.99994C16 6.99994 16 6.99994 16 6.93994C15.9896 6.84807 15.9695 6.75757 15.94 6.66994V6.57994C15.8919 6.47712 15.8278 6.3826 15.75 6.29994L9.75 0.299939C9.66734 0.222155 9.57282 0.15802 9.47 0.109939C9.44015 0.105699 9.40985 0.105699 9.38 0.109939L9.06 -6.10352e-05H3C1.34315 -6.10352e-05 0 1.34308 0 2.99994V16.9999C0 18.6568 1.34315 19.9999 3 19.9999H7C7.55228 19.9999 8 19.5522 8 18.9999C8 18.4477 7.55228 17.9999 7 17.9999ZM9.99999 3.40991L12.59 5.99991H11C10.4477 5.99991 9.99999 5.55219 9.99999 4.99991V3.40991ZM5 12H11C11.5523 12 12 11.5523 12 11C12 10.4477 11.5523 9.99997 11 9.99997H5C4.44772 9.99997 4 10.4477 4 11C4 11.5523 4.44772 12 5 12ZM5 7.99994H6C6.55229 7.99994 7 7.55222 7 6.99994C7 6.44765 6.55229 5.99994 6 5.99994H5C4.44772 5.99994 4 6.44765 4 6.99994C4 7.55222 4.44772 7.99994 5 7.99994ZM7 13.9999H5C4.44772 13.9999 4 14.4476 4 14.9999C4 15.5522 4.44772 15.9999 5 15.9999H7C7.55229 15.9999 8 15.5522 8 14.9999C8 14.4476 7.55229 13.9999 7 13.9999Z" fill="#94A3B8"/>
</svg>
